<?xml version="1.0" encoding="UTF-8"?>
<svg id="_Слой_1" data-name="Слой 1" xmlns="http://www.w3.org/2000/svg"
  xmlns:xlink="http://www.w3.org/1999/xlink" viewBox="0 0 180 180">
  <defs>
    <style>
      .cls-1 {
      fill: url(#_Безымянный_градиент_65);
      stroke-width: 0px;
      }
    </style>
    <linearGradient id="_Безымянный_градиент_65" data-name="Безымянный градиент 65" x1="90"
      y1="71.03" x2="90" y2="108.97" gradientUnits="userSpaceOnUse">
      <stop offset="0" stop-color="#73c8df" />
      <stop offset=".52" stop-color="#134b98" />
      <stop offset="1" stop-color="#143046" />
    </linearGradient>
  </defs>
  <path class="cls-1"
    d="M90.64,73.83c-.18-.05-.42-.1-.65-.18l-3.53-.05.18-.31,3.58-.08c.21,0,.47-.05.75-.18,1.38-.39,2.36-.6,2.99-.6h7.87s-1.27,2.21-1.27,2.21l-6.7-.21c-1.27-.03-2.34-.23-3.22-.6h0ZM134.76,72.45c-2.49,0-4.05.08-4.7.26l-1.82.47c-.21.05-.39.08-.55.08l-3.92.08-.18.29,3.69.1c.44,0,1.01.13,1.69.39.6.23,1.06.34,1.4.34l7.79.31,2.47-2.31h-5.87ZM126.92,75.34l-1.58.42c-.29.05-.49.1-.65.13l-1.06.05-2.6.05-.18.29,3.56.05c.08,0,.21.03.36.08,1.3.42,2.26.65,2.88.68l7.51.31,2.83-2.52-9.79.29c-.47.03-.91.1-1.27.18h0ZM110.09,88.97c-.34.13-.57.18-.7.18l-3.4.05-.18.26,3.12.1c.16,0,.44.08.83.18l.93.26c.91.26,1.48.39,1.77.39l7.29.27-8.2.25c-.6.08-1.01.16-1.22.21l-.57.18-1.45.34c-.1.03-.18.05-.23.05l-3.35.05-.23.31h1.79c1.45.1,2.23.16,2.29.18l1.45.47c.36.13,1.25.21,2.65.26l5.92.21,1.47-2.5h.14s2.81-2.51,2.81-2.51l-9.69.21c-1.04.02-2.1.23-3.22.6h0ZM111.26,85.96c-1.09.31-1.74.47-2,.47l-3.35.08-.1.26,2.55.03c.47,0,.88.08,1.22.18l1.64.52c.65.13,1.17.18,1.53.18l10.44.29,2.83-2.52-13.22.21c-.34,0-.86.1-1.53.31h0ZM109.52,83.73c-.31.05-.49.08-.52.08l-3.3.05-.1.29,3.17.08c.23,0,.7.16,1.45.42.75.29,1.38.42,1.87.42l14.08.31,2.88-2.52-15.19.21c-1.38.02-2.81.26-4.34.67h0ZM119.39,81.08l-.05-.91-7.22.29c-.34.03-.8.1-1.4.26-.57.16-.99.26-1.25.29-.26.05-.42.08-.47.1-.05.05-.1.05-.13.05l-3.27.05-.18.29,3.25.08c.29,0,.83.13,1.64.44.52.21,1.01.31,1.48.34l7.69.47-.05-.91c.96.34,1.64.52,2,.52l7.79.26,2.75-2.52-9.64.26c-.49,0-1.48.23-2.93.65h0ZM123.62,78.06l-1.01.31c-.49.13-1.38.21-2.65.21h-.65l-.1-1.06-7.17.29c-.42.03-.86.1-1.3.21l-1.53.42c-.21.05-.39.08-.57.08l-3.22.05-.13.29,3.19.08,1.64.47c.67.21,1.22.31,1.66.34l7.56.29-.05-1.06h1.07c.83,0,1.53.08,2.05.26l1.22.39c.31.13.68.18,1.04.18l7.53.26,2.8-2.52-9.69.26c-.47,0-1.04.08-1.69.28h0ZM111.8,75.16c-.36.03-.67.08-.93.13l-2.05.55c-.05,0-.16.03-.34.05l-3.25.05-.18.29,2.99.08c.08,0,.23.03.42.08,1.97.44,3.01.68,3.06.68l7.69.34-.13-2.52-7.27.28h0ZM108.77,73.78l.93.34c.52.21,1.19.31,2,.34l7.4.31-.18-2.31h-5.12c-1.69,0-2.83.08-3.45.26l-1.53.42c-.18.05-.55.08-1.07.08l-2.8.05-.23.34,3.4.05c.39.08.62.13.65.13h0ZM109.62,93.67l-.52.08-2.1.55c-.23.05-.39.08-.52.08l-3.35.05-.18.29,3.35.05.62.16,1.22.42c.47.16,1.12.26,2,.29l6.88.26,1.45-2.52-8.1.26c-.42,0-.65.02-.75.05h0ZM107.39,96.4l-1.82.47c-.44.13-1.01.18-1.69.18h-2.29l-.18.26,2.05.1c1.19.05,2.13.21,2.8.44.68.23,1.2.36,1.53.36l7.69.29,1.48-2.52-8.34.21c-.52.05-.94.13-1.25.21h0ZM104.12,99.54c-.36.05-.57.08-.6.08l-3.51.08-.13.26,3.45.1.54.26c.81.39,1.82.6,3.06.6h7.14l1.3-2.26-8.34.21c-1.25.23-2.23.44-2.93.67h0ZM29.6,72.82c.44.08.67.13.7.13l1.51.47c.34.13.7.18,1.06.18l15.32.21,1.17-1.97c-2.44-.55-4.99-.8-7.64-.8-2.23,0-4.36.16-6.39.47l-5.22.8h-.23c-.08.03-.16.05-.18.05l-3.45.08-.18.39,2.7-.05c.36,0,.65.03.83.05h0ZM22.9,98.01c-.47,0-.99.08-1.58.26l-1.71.47c-.29.03-.52.05-.7.08l-3.35.1v.26c1.38.1,3.06,0,4.62.49,1.51.42,3.14.67,4.6.83l-.96,2.18c1.12.03,1.9.1,2.36.26.47.16.75.34.91.57.16.21.21.47.16.75-.08.47-.34.83-.86,1.14-.65.42-1.74.62-3.22.62-.47,0-1.22-.03-2.23-.05l-.67,2.99h3.4c2.29,0,4.05-.44,5.3-1.35,1.27-.91,1.97-1.95,2.16-3.12.1-.8-.1-1.56-.7-2.21-.6-.68-1.53-1.09-2.86-1.25l.18-.39c.49,0,.8-.05.86-.08.65,0,1.35-.03,2.1-.08l1.06-.18c.42-.05.67-.1.83-.16.16-.05.29-.08.36-.08l1.35-2.34-11.4.26h0ZM16.67,90.3l-.65.18-1.45.34c-.1.03-.18.05-.23.05l-3.43.03-.13.31s3.51.08,3.53.05c.6.18,1.19.36,1.71.55.52.18,1.01.29,1.48.29l12.75.26c-1.58-.49-2.65-1.32-3.17-2.52h-.11c-.07-.54-.12-.89-.12-1.07,0-.29.1-.81.29-1.51.31-.73.8-1.58,1.53-2.57l-9.22.21c-.42,0-.99.1-1.71.31l-1.64.42-.34.08-3.53.08-.13.26,3.43.08c.13,0,.31.05.57.13,1.27.44,2.08.65,2.42.65l8.62.34-8.8.29c-.47.05-.88.1-1.22.18l-1.77.52c-.31.03-.57.05-.75.08l-3.27.08-.13.26,3.48.18c.21,0,.44.05.65.13,1.14.39,1.92.6,2.29.6l8.61.31-8.3.24c-.34,0-.75.07-1.25.2h0ZM17.84,97.15c.34.13.7.18,1.06.18l15.56.26,1.44-2.49h.04s1.77-2.99,1.77-2.99c-1.71.31-3.4.47-5.04.47-.73,0-1.4-.08-1.95-.21l-12.41.26c-.31,0-.65.05-1.06.18l-2.18.65h-.29c-.16.03-.29.05-.42.05l-3.06.05-.13.36,2.65.05c.67,0,1.14.05,1.35.13l1.58.55c.26.08.55.13.88.13l17.54.3-15.7.27c-.34,0-.7.08-1.12.18l-1.77.47c-.44.13-1.09.18-1.92.18h-2.16s-.18.31-.18.31h1.66c.55.03.88.05,1.01.05.78.05,1.27.1,1.53.18l1.3.41h0ZM20.43,82.14c-.42,0-.8.08-1.17.18l-1.58.42c-.42.13-.91.18-1.45.18l-2.7.05-.18.26,3.19.08c.44.05.78.13.99.21,1.09.39,1.79.6,2.1.6l9.12.31.29-.31c.75-.83,1.56-1.58,2.47-2.26l-11.06.29h0ZM37.6,79.26l-14.91.21c-.49,0-1.01.08-1.53.21l-1.53.39c-.49.1-1.19.18-2.05.21l-2.23.05-.18.31,3.56.08c.13,0,.29.05.47.13,1.3.42,2.47.65,3.53.67l8.96.21c1.71-1.17,3.69-1.97,5.92-2.47h0ZM41.16,78.92c1.27,0,2.52.18,3.77.52l1.71-2.91-21.61.31c-.62,0-1.64.21-3.06.6-.29.13-.55.18-.75.18h-3.35l-.18.36,3.43.08c.1,0,.29.05.55.13.93.34,1.53.52,1.79.57.29.05.83.1,1.71.16.78.03,1.61.05,2.47.08l10.73.23c1.06-.21,2-.31,2.8-.31ZM23.4,75.47c.91,0,1.43.03,1.58.08l1.43.47c.39.13.96.21,1.71.21l18.54.26,1.45-2.52-19.89.29c-.39,0-.75.05-1.06.13l-2.18.55c-.21.05-.39.08-.54.08l-3.27.05-.23.42h2.47s0,0,0,0ZM42.35,96.43l-2.16.57c-.26.05-.42.08-.52.08l-3.51.08-.13.31,3.25.08c.34.05.86.21,1.58.47.7.23,1.27.36,1.71.36l7.15.23-9.18.31c-.44.05-.99.16-1.64.31-1.01.31-1.61.44-1.77.44l-2.7.05-.21.34,2.55.05c.29,0,.57.08.88.18,1.22.39,2.1.6,2.7.6h7.92s2.14-2.26,2.14-2.26h.12s2.39-2.59,2.39-2.59l-9.61.26c-.39,0-.7.05-.99.13h0ZM43.68,94.09c-.8.23-1.32.36-1.53.36l-3.4.05-.13.31,3.45.08c.16,0,.34.05.6.13,1.14.42,2.08.62,2.75.65l7.58.31,2.6-2.78-10.1.47c-.42.03-1.01.18-1.82.41h0ZM67.34,85.86c-.34.03-.62.05-.88.1l-1.53.36c-.49.13-1.25.18-2.23.18h-.83l.93-.93-9.45.21c-.55.05-1.22.21-2,.42-.75.23-1.27.34-1.48.34l-3.48.08-.13.29,3.4.05c.83.18,1.53.39,2.05.57.21.08.42.13.6.13l7.97.49,1.22-1.27h1.3c.75,0,1.79.26,3.17.75.34.1.6.18.75.21l7.95.29.46-2.54-7.79.28h0ZM74.69,88.12h-.02s0,0,0,0h.02ZM49.89,88.56l-2.05.52c-.31.08-.8.13-1.45.13l-2.57.05-.18.34,3.45.08c.18,0,.39.05.65.13,1.19.44,2.39.65,3.53.65l20.57.23-21.5.23h-1.4c-.73,0-1.38.08-1.92.26l-.42.13-1.64.39c-.08.03-.16.05-.18.05l-3.4.05-.18.31,3.53.05,1.53.47c.47.16.88.26,1.3.29.29,0,1.32.03,3.12.05l23.06.21.47-2.52h-.04s.51-2.52.51-2.52v-.03s-23.61.31-23.61.31c-.47,0-.86.05-1.17.13h0ZM75.68,83l-7.45.23c-.29,0-.7.08-1.3.21-1.14.23-2,.36-2.52.39l.93-.81-9.38.26c-.49.08-.83.13-1.01.18l-2,.52c-.26.05-.47.08-.6.08l-3.4.08-.13.31,3.38.08c.39,0,.91.16,1.64.44.55.23,1.01.34,1.35.34l7.74.26,1.01-1.27c.57,0,.93.03,1.06.1l1.69.65c.31.1.7.18,1.17.21l7.35.31.47-2.57h0ZM56.35,82.3c.67.26,1.45.42,2.39.44l6.75.23.83-1.12c.26.08.42.13.47.18.62.29,1.04.44,1.25.49.21.05.67.08,1.35.13l6.39.31.39-2,.1-.55.18-1.01.29-1.56h-.02l.46-2.47-12.75.26c-.47,0-1.17.1-2.13.34-1.17.29-1.97.42-2.42.42l-3.25.08-.13.31,3.09.08c.47.08.83.13,1.12.18l1.48.47c.36.1,1.4.18,3.06.21l10.06.16-13.31.28c-.39,0-.78.05-1.22.13l-.93.18c-.78.16-1.27.26-1.48.31-.31.13-.6.18-.8.18l-3.45.08-.23.29,3.04.05c.49,0,.86.05,1.06.13l1.58.52c1.19.13,2.23.18,3.17.18l12.18.44-16.41-.21c-.29,0-.7.08-1.22.23l-.52.16c-1.12.34-1.71.49-1.82.49l-3.4.1-.18.34h3.27c.23,0,.8.15,1.71.52h0ZM62.46,94.3c-.21.08-.44.13-.65.13l-3.4.08-.13.26,3.32.1c.34,0,.86.13,1.53.39.68.26,1.22.39,1.58.39l8.39.26.57-2.52-8.34.29c-.34,0-.75.08-1.25.21l-1.64.41h0ZM63.42,73.91l1.22.39c.31.13.75.18,1.35.18l11.32.26.42-2.31h-7.14s-3.64,0-3.64,0c-.83,0-1.51.05-2,.21l-1.82.52c-.21.03-.36.05-.47.05l-3.43.08-.18.31,3.19.1c.39,0,.75.05,1.17.21h0ZM75.24,99.6c-.23.05-.39.08-.52.08l-2.31.08.23-1.04-8.52.29c-.49.03-1.12.13-1.82.34l-1.17.34c-.18.05-.34.08-.47.08l-3.64.08-.18.26,3.45.08c.36.05.57.1.6.13l1.58.47c.47.13,1.12.21,1.95.21h7.79s.16-.83.16-.83l2.08.05c.31,0,.49.03.6.08l1.58.47c.47.13,1.04.21,1.77.21h17.89l1.3-2.31-19.04.29c-1.35.23-2.44.44-3.32.67h0ZM78.84,96.43l-2,.52c-.21.05-.39.08-.55.08l-3.38.08.13-1.14-8.47.26c-.62.08-1.19.21-1.71.34-1.01.29-1.58.42-1.71.42l-3.48.08-.13.31,3.3.05c.26,0,.49.08.75.18.39.13.7.23.88.31.57.21,1.01.31,1.3.31l8.86.26.21-1.06,3.12.08c.31,0,.57.05.83.13l1.3.42c.36.1.91.18,1.58.21l17.95.21,1.48-2.52-19.01.31c-.39,0-.81.07-1.25.18h0ZM89.75,93.36l-8.47.26-.83.13-2.13.55c-.23.05-.42.08-.55.08l-3.35.08-.18.31,3.19.03c.18,0,.39.05.65.13l1.48.47c.47.16,1.77.23,3.87.26l15.71.18,1.45-2.47h-10.86s0,0,0,0ZM81.7,91.15l-.57.13-1.4.39c-.18.05-.29.08-.31.08l-3.45.05-.18.31,3.19.03c.21,0,.47.08.8.18,1.01.34,1.66.52,1.92.57.26.05.8.08,1.61.1l6.52.21,1.45-2.52-8.34.26c-.42.05-.83.13-1.25.21h0ZM92.84,88.04l-8.52.31c-.26,0-.7.08-1.35.26l-1.53.39c-.23.08-.39.13-.52.13l-3.4.05c-.08.1-.16.21-.18.29l2.99.03c.42,0,.8.08,1.22.21l1.12.39c.36.16,1.14.23,2.36.26l6.36.21,1.46-2.52h0ZM84.38,87.57c.34.13.62.18.83.18l7.71.29,1.48-2.57-8.39.31c-.7.03-1.69.26-2.94.65-.26.08-.42.13-.52.13l-3.58.08-.1.26,3.38.08c.18,0,.88.21,2.13.6h0ZM84.38,84.4l1.53.47c.44.13,1.79.23,4.05.29l4.47.13,1.45-2.52-8.57.31c-.39.03-1.19.21-2.42.55-.44.1-.73.18-.88.21l-3.48.05-.13.26,3.43.13c.08,0,.26.05.55.13h0ZM86.01,81.7c1.4.42,2.52.65,3.35.68l6.65.18,1.45-2.52-6.88.26c-1.25.05-2.18.13-2.81.29l-2.05.52h-.23c-.13.03-.23.05-.34.05l-3.04.05-.18.31,3.32.05c.26,0,.49.05.75.13h0ZM87.34,79.08l1.64.52c.31.1.67.16,1.12.18l7.45.26,1.45-2.52-8.57.31c-.36,0-.73.08-1.07.18l-.75.21c-.39.1-.62.18-.75.21-.49.13-.75.18-.78.18l-3.45.05-.18.31,3.43.03c.18,0,.34.02.47.08h0ZM88.92,76.45c.99.42,1.79.62,2.42.65l7.69.26,1.45-2.52-8.34.26c-.44,0-1.09.13-2,.42-.7.23-1.25.34-1.58.34l-3.45.08-.18.34,3.4.05c.1,0,.31.05.6.13h0ZM132.08,87.3c0,2.79,0,5.57,0,8.36.08.01.16.04.24.04,9.91,0,19.82,0,29.73,0h.41c-.39.49-.71.94-1.07,1.35-1.5,1.68-3.31,2.89-5.46,3.6-1.58.52-3.2.72-4.86.58-3.31-.29-6.07-1.67-8.31-4.13-.16-.18-.33-.36-.47-.56-.12-.18-.26-.24-.47-.23-.75.01-1.51,0-2.26.01-.1,0-.23.05-.28.13-.5.66-.98,1.33-1.48,1.99-.09.12-.08.21.01.32.47.58.93,1.16,1.4,1.74.08.1.16.13.29.07.76-.33,1.52-.65,2.27-1,.15-.07.22-.04.33.05.53.44,1.07.88,1.62,1.29.14.11.16.2.13.35-.13.59-.25,1.17-.37,1.76-.05.23-.07.47-.09.7,0,.06.04.15.09.17.7.35,1.4.69,2.11,1.02.06.03.19-.02.24-.07.54-.62,1.08-1.23,1.61-1.86.11-.13.18-.15.34-.11.68.17,1.36.32,2.04.46.19.04.21.14.25.29.2.77.41,1.54.61,2.31.04.15.12.21.27.21.73,0,1.46,0,2.19,0,.16,0,.25-.07.29-.22.2-.77.42-1.54.61-2.31.05-.18.12-.25.3-.29.68-.14,1.35-.29,2.02-.46.14-.03.2,0,.28.1.54.64,1.09,1.27,1.64,1.9.08.1.16.11.27.06.67-.33,1.34-.65,2.01-.97.13-.06.18-.14.15-.29-.15-.78-.28-1.57-.44-2.35-.04-.19-.02-.3.15-.43.55-.41,1.09-.86,1.62-1.3.1-.08.16-.08.28-.03.77.34,1.54.67,2.31,1.01.11.05.18.03.25-.06.48-.6.96-1.2,1.43-1.8.04-.05.04-.19,0-.25-.48-.67-.97-1.34-1.47-2-.09-.12-.11-.19-.04-.33.31-.61.61-1.24.9-1.87.07-.14.13-.2.3-.21.78-.02,1.55-.06,2.33-.07.24,0,.37-.1.42-.34.14-.67.3-1.33.45-2,.04-.17,0-.28-.16-.37-.72-.37-1.44-.76-2.16-1.13-.13-.07-.16-.13-.16-.28.01-.71.01-1.41,0-2.12,0-.14.03-.2.15-.26.73-.37,1.45-.76,2.18-1.14.16-.08.19-.19.15-.35-.16-.68-.31-1.36-.46-2.04-.05-.22-.17-.29-.37-.3-.78-.02-1.56-.06-2.35-.08-.16,0-.23-.04-.3-.19-.29-.63-.59-1.25-.9-1.87-.08-.15-.06-.23.04-.36.49-.65.97-1.32,1.46-1.98.07-.1.09-.18,0-.28-.47-.59-.94-1.17-1.41-1.76-.09-.11-.17-.14-.31-.08-.75.33-1.5.65-2.25.99-.14.06-.21.06-.33-.04-.53-.44-1.07-.88-1.62-1.29-.15-.12-.16-.21-.13-.37.16-.8.3-1.6.45-2.39.03-.14-.02-.21-.14-.27-.68-.32-1.35-.65-2.03-.98-.12-.06-.19-.02-.27.07-.54.63-1.09,1.25-1.62,1.88-.1.12-.18.13-.32.1-.69-.16-1.37-.32-2.07-.46-.17-.03-.19-.13-.22-.26-.2-.76-.4-1.53-.6-2.29-.05-.18-.14-.26-.33-.26-.71,0-1.41,0-2.14,0,.07,1.64.14,3.26.2,4.89,4.72-.14,8.5,1.63,11.21,5.52,1.48,2.13,2.14,4.54,2.06,7.17-.81-.68-1.62-1.36-2.44-2.05-.32.76-.64,1.49-.97,2.26-.91-.76-1.79-1.5-2.69-2.26-.33.76-.64,1.5-.97,2.26-.91-.76-1.79-1.5-2.69-2.26-.21.49-.4.94-.6,1.4-.1.24-.2.49-.32.73-.03.06-.12.12-.18.12-.26.01-.53,0-.83,0v-1.6h-2c-.2-5.39-.4-10.76-.6-16.13h-1.13c-.2,5.38-.4,10.75-.59,16.12h-1.18c-.17-4.52-.34-9.02-.5-13.54h-1.13c-.17,4.51-.33,9.01-.5,13.55h-2.03v1.59h-.7v-.25c0-1.4,0-2.8,0-4.2,0-.34-.07-.42-.41-.42-.25,0-.5,0-.75,0-.01,0-.03-.01-.07-.03,0-.34,0-.7,0-1.05,0-.33,0-.67-.04-1-.07-.54-.39-.9-.9-1.08-.13-.05-.16-.1-.16-.23.01-.3.01-.61,0-.91,0-.25-.06-.31-.32-.31-.94,0-1.87,0-2.81,0-.28,0-.36.08-.36.37,0,1.22-.01,2.44-.02,3.65v.24h-.37c0-.27,0-.54,0-.81,0-.37-.03-.4-.4-.4-.11,0-.23,0-.36,0,0-.09-.01-.17-.01-.25,0-.62-.28-1.06-.82-1.34-.05-.02-.12-.07-.12-.11,0-.19-.11-.2-.25-.2-.13,0-.26,0-.39,0-.13,0-.2.03-.21.17,0,.05-.07.11-.12.14-.55.29-.82.73-.82,1.36,0,1.42,0,2.83,0,4.25v.27c-.15,0-.29,0-.42,0-.14-.01-.22.04-.21.19h0ZM136.25,87.1v-1.09c.42,0,.82,0,1.23,0,.31,0,.33-.03.33-.34,0-.52,0-1.03,0-1.55,0-.07.01-.15.02-.22h.58v5.34h-1.7v-2.14h-.47ZM136.24,85.6c0-.33,0-.65,0-1.01.17,0,.32,0,.47,0,.33,0,.4-.08.41-.4,0-1.21.01-2.42.02-3.63,0-.07,0-.15.01-.24h2.39c0,.23,0,.45,0,.67,0,.12-.05.16-.16.2-.61.2-.95.68-.95,1.32,0,.32,0,.65,0,1-.16,0-.29,0-.41,0-.63,0-.59-.06-.59.59,0,.5,0,1,0,1.5h-1.18,0ZM141.19,89.25v-4.32h.66v4.32h-.66ZM161.94,91.2v-.74h1.37v.74h-1.37ZM161.48,91.2h-1.37v-.73h1.37v.73ZM157.84,91.2h-1.37v-.74h1.37v.74ZM159.66,91.2h-1.37v-.74h1.37v.74ZM154.65,90.46h1.36v.74h-1.36v-.74ZM161.94,91.6h1.37v.72h-1.37v-.72ZM156.47,91.6h1.37v.71h-1.37v-.71ZM160.11,91.59h1.37v.72h-1.37v-.72ZM159.66,91.6v.72h-1.36v-.72h1.36ZM154.65,92.32v-.72h1.35v.72h-1.35ZM141.61,90.74v.94h-.96v-.94h.96ZM140.24,90.74v.94h-.95v-.94h.95ZM137.93,90.74h.95v.93h-.95v-.93ZM135.83,87.1h-.35v-1.07h.35v1.07ZM135.47,85.61v-1h.35v1h-.35ZM135.49,84.03v-.8h.33v.8h-.33ZM77.77,107c.18-.11.3-.26.38-.45l-.09-.27c-.07.19-.19.33-.34.43s-.34.15-.56.15c-.23,0-.41-.05-.53-.15s-.19-.23-.19-.39c0-.14.05-.27.16-.36.11-.1.3-.15.57-.15h.97v-.29h-.98c-.27,0-.49.04-.65.11-.16.07-.28.17-.35.29-.07.12-.11.26-.11.4,0,.16.04.31.12.43.08.12.2.22.36.29.16.07.34.11.56.11.27,0,.5-.06.68-.17ZM78.45,107.14v-1.77c0-.37-.1-.65-.3-.83-.2-.18-.49-.27-.85-.27-.22,0-.44.03-.64.1-.2.07-.38.16-.52.28l.17.29c.12-.1.26-.18.42-.24s.34-.09.53-.09c.27,0,.47.07.6.2.14.13.2.32.2.56v1.05l.02.1v.63h.37ZM88.45,107c.2-.11.35-.28.47-.5.12-.22.17-.48.17-.79s-.06-.57-.18-.79c-.12-.22-.27-.38-.47-.49-.2-.11-.42-.17-.67-.17-.27,0-.51.06-.73.18-.22.12-.38.29-.51.51-.12.22-.18.47-.18.76s.06.54.18.76c.12.22.29.39.51.51.22.12.46.18.73.18.25,0,.48-.06.68-.17ZM87.27,106.69c-.16-.09-.29-.22-.38-.39s-.14-.36-.14-.58.05-.42.14-.59.22-.3.38-.39c.16-.09.34-.14.54-.14s.38.05.55.14c.16.09.29.22.38.39.09.17.14.36.14.59s-.05.41-.14.58c-.09.17-.22.3-.38.39-.16.09-.34.14-.55.14s-.38-.05-.54-.14ZM89.24,107.14v-4.02h-.39v2.02l.05.57-.04.57v.86h.37ZM81.83,104.44c-.2.12-.34.28-.43.49l.06.15v-.78h-.37v2.85h.38v-1.5c0-.22.04-.4.12-.56.08-.15.2-.27.35-.35.15-.08.33-.12.53-.12.27,0,.48.08.63.23.15.15.23.38.23.68v1.62h.38v-1.65c0-.27-.05-.5-.15-.68-.1-.18-.24-.32-.41-.4-.18-.09-.38-.13-.61-.13-.27,0-.51.06-.71.18ZM38.72,104.61v-.32h-1.76v.32h1.76ZM38.63,107.12c.11-.03.2-.08.27-.15l-.14-.28c-.11.1-.25.15-.42.15-.16,0-.28-.05-.37-.14s-.13-.22-.13-.39v-2.65h-.39v2.67c0,.26.07.47.22.61s.35.22.62.22c.11,0,.22-.02.33-.05ZM42.22,107.14v-1.45c0-.34.09-.6.25-.78.17-.18.41-.27.71-.27.01,0,.03,0,.04,0,.01,0,.03,0,.04,0v-.37c-.28,0-.51.06-.7.17s-.32.28-.4.5l.04.14v-.78h-.37v2.85h.38ZM47.45,107c.18-.11.3-.26.38-.45l-.09-.27c-.07.19-.19.33-.34.43s-.34.15-.56.15c-.23,0-.41-.05-.53-.15s-.19-.23-.19-.39c0-.14.05-.27.16-.36.11-.1.3-.15.57-.15h.97v-.29h-.98c-.27,0-.49.04-.65.11-.16.07-.28.17-.35.29-.07.12-.11.26-.11.4,0,.16.04.31.12.43.08.12.2.22.36.29.16.07.34.11.56.11.27,0,.5-.06.68-.17ZM48.13,107.14v-1.77c0-.37-.1-.65-.3-.83-.2-.18-.49-.27-.85-.27-.22,0-.44.03-.64.1-.2.07-.38.16-.52.28l.17.29c.12-.1.26-.18.42-.24s.34-.09.53-.09c.27,0,.47.07.6.2.14.13.2.32.2.56v1.05l.02.1v.63h.37ZM53.21,107c.2-.11.35-.28.47-.5.12-.22.17-.48.17-.79s-.06-.57-.18-.79c-.12-.22-.27-.38-.47-.49-.2-.11-.42-.17-.67-.17-.27,0-.51.06-.73.18-.22.12-.38.29-.51.51-.12.22-.18.47-.18.76s.06.54.18.76c.12.22.29.39.51.51.22.12.46.18.73.18.25,0,.48-.06.68-.17ZM52.02,106.69c-.16-.09-.29-.22-.38-.39s-.14-.36-.14-.58.05-.42.14-.59.22-.3.38-.39c.16-.09.34-.14.54-.14s.38.05.55.14c.16.09.29.22.38.39.09.17.14.36.14.59s-.05.41-.14.58c-.09.17-.22.3-.38.39-.16.09-.34.14-.55.14s-.38-.05-.54-.14ZM54,107.14v-4.02h-.39v2.02l.05.57-.04.57v.86h.37ZM57.7,103.58c.05-.05.08-.12.08-.2s-.03-.14-.08-.19c-.05-.05-.12-.08-.2-.08s-.15.03-.2.08c-.05.05-.08.12-.08.19s.03.14.08.2c.05.05.12.08.2.08s.15-.03.2-.08ZM57.68,107.14v-2.85h-.38v2.85h.38ZM61.72,104.44c-.2.12-.34.28-.43.49l.06.15v-.78h-.37v2.85h.38v-1.5c0-.22.04-.4.12-.56.08-.15.2-.27.35-.35.15-.08.33-.12.53-.12.27,0,.48.08.63.23.15.15.23.38.23.68v1.62h.38v-1.65c0-.27-.05-.5-.15-.68-.1-.18-.24-.32-.41-.4-.18-.09-.38-.13-.61-.13-.27,0-.51.06-.71.18ZM68.7,106.87c.2-.11.36-.27.48-.47.12-.21.18-.46.18-.75s-.06-.55-.18-.75c-.12-.21-.28-.36-.48-.47-.2-.1-.43-.16-.68-.16-.27,0-.52.06-.73.17-.22.12-.39.28-.51.49-.12.21-.19.45-.19.72s.06.51.19.72.3.37.51.49c.22.12.46.18.73.18.25,0,.48-.05.68-.16ZM69.15,107.88c.24-.23.36-.59.36-1.08v-2.5h-.37v.86l.04.49-.05.49v.71c0,.35-.09.62-.25.78-.17.17-.44.25-.8.25-.22,0-.43-.04-.63-.11-.2-.07-.36-.17-.5-.28l-.2.29c.15.14.34.25.58.33.24.08.49.11.75.11.47,0,.83-.12,1.07-.34ZM67.5,106.56c-.16-.09-.29-.21-.39-.37-.09-.16-.14-.34-.14-.55s.05-.39.14-.54c.09-.16.22-.28.39-.37.16-.09.35-.13.56-.13s.4.04.56.13.29.21.39.37c.09.16.14.34.14.54s-.05.39-.14.55-.22.28-.39.37-.35.13-.56.13-.39-.04-.56-.13ZM97.59,107.07c.18-.07.31-.16.4-.28.09-.12.14-.27.14-.43,0-.16-.03-.28-.1-.38-.07-.1-.16-.17-.27-.22s-.23-.09-.36-.12c-.13-.03-.26-.06-.4-.08-.13-.02-.25-.05-.36-.08-.11-.03-.2-.08-.27-.14-.07-.06-.1-.15-.1-.25,0-.14.06-.25.18-.34.12-.09.31-.13.57-.13.14,0,.29.02.43.06.14.04.28.1.41.19l.17-.31c-.12-.08-.27-.14-.46-.19-.18-.05-.37-.07-.55-.07-.24,0-.45.04-.62.11-.17.07-.3.17-.38.29-.09.12-.13.26-.13.42s.03.29.1.39c.07.1.16.17.26.23.11.06.23.1.36.13.13.03.26.05.4.08.13.02.25.05.36.08s.2.08.26.14c.07.06.1.14.1.25,0,.14-.06.25-.18.34-.12.08-.31.13-.59.13-.2,0-.39-.03-.57-.1-.18-.06-.33-.14-.44-.22l-.17.3c.12.1.28.19.49.25.21.07.43.1.67.1.25,0,.46-.03.64-.1ZM102.89,107.05c.19-.08.35-.2.47-.35l-.22-.25c-.11.13-.24.22-.39.28-.15.06-.31.09-.49.09-.22,0-.42-.05-.59-.14-.17-.09-.31-.22-.4-.39-.1-.16-.14-.35-.14-.57v-.06c0-.21.04-.4.13-.56.09-.16.21-.29.36-.38s.33-.14.53-.14.37.05.53.14.27.22.36.38.13.34.13.55l.15-.11h-2.27v.29h2.48s0-.04,0-.06c0-.02,0-.04,0-.06,0-.29-.06-.54-.18-.76s-.28-.39-.49-.51c-.21-.12-.45-.18-.71-.18s-.5.06-.71.19c-.21.12-.38.3-.5.51-.12.22-.18.47-.18.75s.06.53.19.75.3.39.53.52.48.19.78.19c.23,0,.44-.04.63-.12ZM106.94,107.14v-1.45c0-.34.09-.6.25-.78.17-.18.41-.27.71-.27.01,0,.03,0,.04,0,.01,0,.03,0,.04,0v-.37c-.28,0-.51.06-.7.17s-.32.28-.4.5l.04.14v-.78h-.37v2.85h.38ZM112.16,107.14l1.27-2.85h-.38l-1.18,2.64h.19l-1.16-2.64h-.4l1.26,2.85h.4ZM116.6,103.58c.05-.05.08-.12.08-.2s-.03-.14-.08-.19c-.05-.05-.12-.08-.2-.08s-.15.03-.2.08c-.05.05-.08.12-.08.19s.03.14.08.2c.05.05.12.08.2.08s.15-.03.2-.08ZM116.58,107.14v-2.85h-.38v2.85h.38ZM121.72,107.03c.2-.1.35-.24.46-.42l-.29-.2c-.1.14-.22.25-.36.31-.14.07-.3.1-.47.1-.2,0-.39-.05-.55-.14-.16-.09-.29-.22-.39-.39s-.14-.36-.14-.59.05-.42.14-.59.22-.3.39-.39.35-.14.55-.14c.17,0,.33.03.47.1.14.07.27.18.36.32l.29-.2c-.11-.19-.27-.33-.46-.42-.2-.09-.41-.14-.66-.14-.28,0-.53.06-.76.18-.22.12-.4.29-.52.51-.13.22-.19.47-.19.75s.06.53.19.75.3.39.52.52c.22.12.47.19.76.19.24,0,.46-.05.66-.14ZM126.94,107.05c.19-.08.35-.2.47-.35l-.22-.25c-.11.13-.24.22-.39.28-.15.06-.31.09-.49.09-.22,0-.42-.05-.59-.14-.17-.09-.31-.22-.4-.39-.1-.16-.14-.35-.14-.57v-.06c0-.21.04-.4.13-.56.09-.16.21-.29.36-.38s.33-.14.53-.14.37.05.53.14.27.22.36.38.13.34.13.55l.15-.11h-2.27v.29h2.48s0-.04,0-.06c0-.02,0-.04,0-.06,0-.29-.06-.54-.18-.76s-.28-.39-.49-.51c-.21-.12-.45-.18-.71-.18s-.5.06-.71.19c-.21.12-.38.3-.5.51-.12.22-.18.47-.18.75s.06.53.19.75.3.39.53.52.48.19.78.19c.23,0,.44-.04.63-.12Z" />
</svg>